<svg width="104" height="186" viewBox="0 0 104 186" fill="none" xmlns="http://www.w3.org/2000/svg">
<path d="M38.3048 99.9165C38.3048 99.9165 37.2198 55.4302 38.3048 23.9642C39.3898 -7.50176 77.3661 -8.04419 77.3661 23.9642V112.394L81.7062 115.649V74.9607C81.7062 54.3452 102.322 58.6853 102.864 74.9607C103.406 91.2362 102.864 131.925 102.864 137.893C102.864 143.86 77.3661 146.03 77.3661 137.893V180.209C77.3661 187.262 38.3048 186.176 38.3048 180.209V122.16C38.3048 127.042 0.871216 128.67 0.871216 122.16V64.1104C0.871216 51.09 22.0293 49.4625 22.0293 64.1104V99.9165H38.3048Z" fill="#827F3B"/>
</svg>
